<svg width="63" height="63" viewBox="0 0 63 63" fill="none" xmlns="http://www.w3.org/2000/svg">
<g clip-path="url(#clip0_146_2843)">
<path fill-rule="evenodd" clip-rule="evenodd" d="M55.8496 11.5166C60.3814 17.0388 62.8992 23.9338 62.9969 31.0682C63 31.3065 62.8066 31.5 62.5682 31.5H59.4089C59.1861 31.5 59.0002 31.3291 58.9758 31.1078C57.7078 19.6772 48.0152 10.7877 36.2466 10.7877C23.6158 10.7877 13.3767 21.0268 13.3767 33.6574C13.3767 46.288 23.6158 56.5273 36.2466 56.5273C41.7596 56.5273 46.8169 54.5765 50.7663 51.3275C50.9401 51.1847 51.1944 51.1944 51.3535 51.3535L53.4686 53.4686C53.6371 53.6371 53.6371 53.9106 53.4665 54.0768C48.3525 59.0527 41.6968 62.148 34.5874 62.8483C27.3349 63.5625 20.059 61.7401 13.9995 57.6912C7.94002 53.6424 3.47189 47.6177 1.35638 40.644C-0.759115 33.67 -0.391074 26.1784 2.39779 19.4455C5.18666 12.7125 10.2238 7.15489 16.651 3.71952C23.0781 0.284135 30.4976 -0.816442 37.6451 0.605312C44.7929 2.02707 51.2264 5.88317 55.8496 11.5166Z" fill="#252626"/>
<path fill-rule="evenodd" clip-rule="evenodd" d="M38.3983 39.267C42.5433 39.267 45.9299 36.0203 46.1538 31.9313C46.1669 31.6935 46.3588 31.5 46.5971 31.5H54.3641C54.6024 31.5 54.7964 31.6932 54.7901 31.9313C54.6799 36.1237 52.9663 40.1211 49.9932 43.0946C46.9181 46.1696 42.7472 47.897 38.3986 47.897C34.0497 47.897 29.879 46.1696 26.804 43.0946C23.8307 40.1211 22.1172 36.1237 22.007 31.9313C22.0007 31.6932 22.1945 31.5 22.4328 31.5H30.1998C30.4381 31.5 30.63 31.6935 30.6431 31.9313C30.867 36.0203 34.2537 39.267 38.3983 39.267Z" fill="#252626"/>
</g>
<defs>
<clipPath id="clip0_146_2843">
<rect width="62.9969" height="63" fill="white"/>
</clipPath>
</defs>
</svg>
